<?xml version="1.0" encoding="UTF-8"?>
<svg width="1440px" height="159px" viewBox="0 0 1440 159" version="1.1" xmlns="http://www.w3.org/2000/svg" xmlns:xlink="http://www.w3.org/1999/xlink">
    <!-- Generator: Sketch 64 (93537) - https://sketch.com -->
    <title>Shape</title>
    <desc>Created with Sketch.</desc>
    <g id="Page-1" stroke="none" stroke-width="1" fill="none" fill-rule="evenodd">
        <g id="Desktop-HD" transform="translate(0.000000, -380.000000)" fill="#242620" fill-rule="nonzero">
            <path d="M216.371823,381.54429 L197.837036,470.010028 C194.832645,484.349861 205.080665,493.615599 219.047593,493.615599 C232.506634,493.615599 244.855703,484.902376 248.192714,470.813245 L248.371923,470.010028 L266.90671,381.54429 L328.361196,381.54429 L309.733966,470.451253 C301.136783,511.485237 261.469254,538.4 209.410702,538.4 C157.621331,538.4 128.283322,512.020841 136.043578,471.678024 L136.290108,470.451253 L154.917337,381.54429 L216.371823,381.54429 Z M874.415832,380 C931.553266,380 966.52084,413.091922 956.953008,458.758774 C947.338954,504.64624 898.366292,538.4 841.228857,538.4 C784.091422,538.4 749.216291,504.866852 758.876566,458.758774 C768.49062,412.871309 817.278397,380 874.415832,380 Z M30.7011064,381.5312 L30.696,381.54176 L65.0211064,381.54429 C107.759908,381.54429 133.18613,396.46365 128.757036,420.308681 L128.61367,421.033983 C125.563056,435.594429 112.562947,447.948747 94.8548199,453.68468 C113.299206,458.979387 122.853358,473.981058 119.01698,492.291922 C113.434928,518.934819 81.2744451,535.849683 38.2571764,536.18868 L36.9369466,536.193872 L-58.8,536.193872 L-58.79736,536.17976 L-72,536.180782 L-63.68136,496.46888 L-50.47872,496.46888 L-34.71792,421.24208 L-47.92056,421.23944 L-39.5987895,381.5312 L30.7011064,381.5312 Z M410.131214,381.54429 L377.730003,536.193872 L316.275518,536.193872 L348.676728,381.54429 L410.131214,381.54429 Z M494.440673,381.54429 L471.42241,491.409471 L545.574103,491.409471 L536.191156,536.193872 L400.584977,536.193872 L432.986188,381.54429 L494.440673,381.54429 Z M700.960291,381.54429 L692.039558,424.122563 L641.250727,424.122563 L617.770249,536.193872 L556.315764,536.193872 L579.796242,424.122563 L529.261355,424.122563 L538.182087,381.54429 L700.960291,381.54429 Z M1071.91478,381.54429 C1118.6405,381.54429 1141.76788,402.061281 1134.32623,437.579944 C1126.50141,474.927487 1095.05811,496.707002 1049.0921,497.138858 L1047.69476,497.145404 L1024.3319,497.145404 L1016.15071,536.193872 L954.69622,536.193872 L987.097431,381.54429 L1071.91478,381.54429 Z M1314.43145,381.54429 L1305.83426,422.578273 L1214.16042,422.578273 L1210.8787,438.241783 L1294.17239,438.241783 L1285.5752,479.275766 L1202.28152,479.275766 L1198.95358,495.159889 L1292.91292,495.159889 L1284.31573,536.193872 L1128.90191,536.193872 L1161.30312,381.54429 L1314.43145,381.54429 Z M1387.56736,381.54429 L1439.95479,458.758774 L1456.13229,381.54429 L1512,381.54429 L1479.59879,536.193872 L1428.55601,536.193872 L1376.33009,459.420613 L1360.24504,536.193872 L1304.12338,536.193872 L1336.52459,381.54429 L1387.56736,381.54429 Z M41.8908463,476.187187 L14.9727658,476.187187 L11.22336,494.07176 L10.80624,496.48208 L37.6384763,496.483565 C47.7687891,496.483565 54.8840325,492.515435 56.4958896,486.408015 L56.6174183,485.89415 C57.7905618,480.294787 52.8034397,476.377284 42.6434757,476.19391 L41.8908463,476.187187 Z M865.794717,424.784401 C845.987073,424.784401 826.014644,438.903621 821.808496,458.979387 C817.602347,479.055153 831.819936,493.615599 851.373636,493.615599 C870.927336,493.615599 889.722487,479.055153 893.928636,458.979387 C898.134784,438.903621 885.348417,424.784401 865.794717,424.784401 Z M1060.27027,422.578273 L1039.95473,422.578273 L1032.92908,456.111421 L1053.24461,456.111421 C1065.17999,456.111421 1073.28446,450.154875 1075.59553,439.124234 C1077.76978,428.746607 1072.42685,422.818388 1060.97878,422.58541 L1060.27027,422.578273 Z M53.3999781,421.254596 L26.4818976,421.254596 L22.5530775,440.006685 L49.471158,440.006685 C57.0894826,440.006685 62.4000201,436.47688 63.6479982,430.520334 C64.815419,424.948285 61.2331341,421.4581 54.0436743,421.26321 L53.3999781,421.254596 Z" id="Shape"></path>
        </g>
    </g>
</svg>