<svg xmlns="http://www.w3.org/2000/svg" width="24" height="24">
  <path d="M8.54 0h6.92l.984.008c2.059.026 3.288.14 4.28.646a6 6 0 012.622 2.622c.58 1.137.645 2.586.653 5.238v6.946c-.007 2.669-.072 4.123-.653 5.264a6 6 0 01-2.622 2.622c-1.137.58-2.586.645-5.238.653H8.54c-2.669-.007-4.123-.072-5.264-.653a6 6 0 01-2.622-2.622c-.581-1.14-.646-2.595-.653-5.264V8.54l.007-.984c.026-2.059.14-3.288.646-4.28A6 6 0 013.276.654C4.416.073 5.871.008 8.54.001zm6.918 2.001h-6.56c-1.339 0-2.304.011-3.076.074-.877.072-1.325.202-1.638.361a4 4 0 00-1.748 1.748c-.16.313-.29.761-.36 1.638l-.03.441A47.101 47.101 0 002 8.543V15.1c0 1.34.011 2.305.074 3.077.072.877.202 1.325.361 1.638a4 4 0 001.748 1.748c.287.146.687.267 1.428.342l.21.019c.836.068 1.9.074 3.42.075h6.187c1.171-.004 2.042-.017 2.749-.075.877-.072 1.325-.202 1.638-.361a4 4 0 001.748-1.748c.146-.287.267-.687.342-1.428l.019-.21c.068-.836.074-1.9.075-3.42V8.572c-.004-1.171-.017-2.042-.075-2.749-.072-.877-.202-1.325-.361-1.638a4 4 0 00-1.748-1.748c-.313-.16-.761-.29-1.638-.36l-.441-.03A47.1 47.1 0 0015.457 2zM12 6a6 6 0 110 12 6 6 0 010-12zm0 2a4 4 0 100 8 4 4 0 000-8zm6-3a1 1 0 110 2 1 1 0 010-2z"/>
</svg>
