<svg xmlns="http://www.w3.org/2000/svg" width="47" height="20" viewBox="0 0 47 20">
  <path fill="#0015FF" d="M0,0 C5.99660612,0 10.6070068,2.99364569 13.6071839,8.74971102 L13.7888544,9.10557281 C16.1279424,13.7837488 19.4523192,16 24,16 C28.4394027,16 31.7130605,13.8880282 34.042389,9.43554461 L34.2111456,9.10557281 C37.040122,3.44762006 41.3699895,0.352845886 47,0.0284476967 L47.0005998,4.03725211 C43.064791,4.33716036 40.1085774,6.45290883 37.957611,10.5644554 L37.7888544,10.8944272 C34.794609,16.8829179 30.1189858,20 24,20 C18.0033939,20 13.3929932,17.0063543 10.3928161,11.250289 L10.2111456,10.8944272 C7.87205762,6.2162512 4.54768083,4 0,4 L0,0 Z"/>
</svg>
